<svg width="29" height="24" viewBox="0 0 29 24" fill="none" xmlns="http://www.w3.org/2000/svg">
<path d="M24 4H6C5.73478 4 5.48043 4.10536 5.29289 4.29289C5.10536 4.48043 5 4.73478 5 5V19C5 19.2652 5.10536 19.5196 5.29289 19.7071C5.48043 19.8946 5.73478 20 6 20H24C24.2652 20 24.5196 19.8946 24.7071 19.7071C24.8946 19.5196 25 19.2652 25 19V5C25 4.73478 24.8946 4.48043 24.7071 4.29289C24.5196 4.10536 24.2652 4 24 4Z" stroke="#B3B3B3" stroke-width="2"/>
<path d="M15 8.5V15.5M19 12V15.5M11 11V15.5" stroke="#B3B3B3" stroke-width="2" stroke-linecap="round"/>
</svg>
