<svg width="29" height="24" viewBox="0 0 29 24" fill="none" xmlns="http://www.w3.org/2000/svg">
<path d="M18 21V13C18 12.7348 17.8946 12.4804 17.7071 12.2929C17.5196 12.1054 17.2652 12 17 12H13C12.7348 12 12.4804 12.1054 12.2929 12.2929C12.1054 12.4804 12 12.7348 12 13V21" stroke="#B3B3B3" stroke-width="2" stroke-linecap="round" stroke-linejoin="round"/>
<path d="M6 10C5.99993 9.7091 6.06333 9.42165 6.18579 9.15775C6.30824 8.89384 6.4868 8.65983 6.709 8.47203L13.709 2.47303C14.07 2.16794 14.5274 2.00055 15 2.00055C15.4726 2.00055 15.93 2.16794 16.291 2.47303L23.291 8.47203C23.5132 8.65983 23.6918 8.89384 23.8142 9.15775C23.9367 9.42165 24.0001 9.7091 24 10V19C24 19.5305 23.7893 20.0392 23.4142 20.4142C23.0391 20.7893 22.5304 21 22 21H8C7.46957 21 6.96086 20.7893 6.58579 20.4142C6.21071 20.0392 6 19.5305 6 19V10Z" stroke="#B3B3B3" stroke-width="2" stroke-linecap="round" stroke-linejoin="round"/>
</svg>
