<svg width="29" height="24" viewBox="0 0 29 24" fill="none" xmlns="http://www.w3.org/2000/svg">
<path fill-rule="evenodd" clip-rule="evenodd" d="M18 6.75C18 7.54565 17.6839 8.30871 17.1213 8.87132C16.5587 9.43393 15.7956 9.75 15 9.75C14.2044 9.75 13.4413 9.43393 12.8787 8.87132C12.3161 8.30871 12 7.54565 12 6.75C12 5.95435 12.3161 5.19129 12.8787 4.62868C13.4413 4.06607 14.2044 3.75 15 3.75C15.7956 3.75 16.5587 4.06607 17.1213 4.62868C17.6839 5.19129 18 5.95435 18 6.75ZM20.25 6.75C20.25 8.14239 19.6969 9.47775 18.7123 10.4623C17.7277 11.4469 16.3924 12 15 12C13.6076 12 12.2723 11.4469 11.2877 10.4623C10.3031 9.47775 9.75 8.14239 9.75 6.75C9.75 5.35761 10.3031 4.02226 11.2877 3.03769C12.2723 2.05312 13.6076 1.5 15 1.5C16.3924 1.5 17.7277 2.05312 18.7123 3.03769C19.6969 4.02226 20.25 5.35761 20.25 6.75ZM6.75 18.75C6.75 18.444 7.08 17.5365 8.73 16.5615C10.257 15.66 12.48 15 15 15C17.52 15 19.743 15.66 21.27 16.5615C22.92 17.5365 23.25 18.444 23.25 18.75C23.25 19.1478 23.092 19.5294 22.8107 19.8107C22.5294 20.092 22.1478 20.25 21.75 20.25H8.25C7.85218 20.25 7.47064 20.092 7.18934 19.8107C6.90804 19.5294 6.75 19.1478 6.75 18.75ZM15 12.75C9.225 12.75 4.5 15.75 4.5 18.75C4.5 19.7446 4.89509 20.6984 5.59835 21.4016C6.30161 22.1049 7.25544 22.5 8.25 22.5H21.75C22.7446 22.5 23.6984 22.1049 24.4016 21.4016C25.1049 20.6984 25.5 19.7446 25.5 18.75C25.5 15.75 20.775 12.75 15 12.75Z" fill="#B3B3B3"/>
</svg>
